<?xml version="1.0" encoding="UTF-8" standalone="no"?>
<svg xmlns="http://www.w3.org/2000/svg" xmlns:xlink="http://www.w3.org/1999/xlink" width="100%" height="100%" id="list" version="1.1">


<symbol  id="Star_-_Orange" viewBox="-24 -22.826 48 45.652">
	<g>
		<radialGradient id="SVGID_33_" cx="4.2085" cy="-13.9414" r="20.4942" gradientUnits="userSpaceOnUse">
			<stop  offset="0" style="stop-color:#FFF588"/>
			<stop  offset="0.3132" style="stop-color:#FFF350"/>
			<stop  offset="1" style="stop-color:#FAA919"/>
		</radialGradient>
		<polygon fill="url(#SVGID_33_)" points="0,-14.462 -14.169,-21.912 -11.463,-6.134 -22.926,5.04 -7.085,7.342 0,21.696 
			7.085,7.342 22.926,5.04 11.463,-6.134 14.169,-21.912"/>
		<path fill="#D88119" d="M0,20.567l6.521-13.21l0.232-0.472l0.52-0.076L21.851,4.69L11.302-5.592l-0.376-0.367l0.089-0.518
			l2.491-14.521l-13.04,6.856L0-13.897l-0.465-0.245l-13.04-6.856l2.491,14.521l0.089,0.518l-0.376,0.367L-21.851,4.69l14.578,2.119
			l0.52,0.076l0.232,0.472L0,20.567 M0,22.826L-7.417,7.799L-24,5.389l12-11.697l-2.833-16.518L0-15.027l14.833-7.799L12-6.309
			L24,5.389L7.417,7.799L0,22.826L0,22.826z"/>
	</g>
	<g>
		<linearGradient id="SVGID_34_" gradientUnits="userSpaceOnUse" x1="-5.1191" y1="25.3193" x2="4.5485" y2="-14.9636">
			<stop  offset="0" style="stop-color:#FFFFFF"/>
			<stop  offset="1" style="stop-color:#000000"/>
		</linearGradient>
		<path fill="url(#SVGID_34_)" d="M-9.851-5.609l-0.178-1.039l-0.438-2.555C-4.661-3.445,5.022,0.34,16.008,0.391l3.693,3.6
			L7.127,5.818l-1.04,0.152L5.621,6.914l-5.622,11.391L-5.622,6.914l-0.465-0.943l-1.041-0.152L-19.702,3.99l9.1-8.867L-9.851-5.609
			z"/>
	</g>
</symbol>


    <rect id="item1" width="100%" height="25%" fill="#5D5D5D" />
	
	<rect id="item2" width="100%" height="25%" y="25%" fill="#5D5D5D" />
	<use xlink:href="#Star_-_Orange"  width="48" height="45.652" x="0" y="0" transform="matrix(1.7083 0 0 -1.7962 91.0938 99.5)" overflow="visible"/>
	
	
	<rect id="item3" width="100%" height="25%" y="50%" fill="#5D5D5D" />
	
	<rect id="item4" width="100%" height="25%" y="75%" fill="#5D5D5D" />

</svg>
