<?xml version="1.0" encoding="utf-8"?>
<!-- Generator: Adobe Illustrator 16.0.0, SVG Export Plug-In . SVG Version: 6.00 Build 0)  -->
<!DOCTYPE svg PUBLIC "-//W3C//DTD SVG 1.1//EN" "http://www.w3.org/Graphics/SVG/1.1/DTD/svg11.dtd">
<svg version="1.1" xmlns="http://www.w3.org/2000/svg" xmlns:xlink="http://www.w3.org/1999/xlink" x="0px" y="0px" width="851px"
	 height="502px" viewBox="0 0 851 502" enable-background="new 0 0 851 502" xml:space="preserve">
<symbol  id="Arrow_Left_-_Grey" viewBox="-32 -32 64 64">
	<g>
		<g>
			<radialGradient id="SVGID_1_" cx="-0.0645" cy="-22.5723" r="32.4843" gradientUnits="userSpaceOnUse">
				<stop  offset="0" style="stop-color:#E7ECEF"/>
				<stop  offset="1" style="stop-color:#BFC8CD"/>
			</radialGradient>
			<path fill="url(#SVGID_1_)" d="M0-31.5c-17.369,0-31.5,14.131-31.5,31.5S-17.369,31.5,0,31.5S31.5,17.369,31.5,0
				S17.369-31.5,0-31.5z"/>
			<g>
				<path fill="#8B98A0" d="M0,31c17.093,0,31-13.907,31-31S17.093-31,0-31S-31-17.093-31,0S-17.093,31,0,31 M0,32
					c-17.674,0-32-14.328-32-32c0-17.674,14.326-32,32-32c17.672,0,32,14.326,32,32C32,17.672,17.672,32,0,32L0,32z"/>
			</g>
		</g>
		<g opacity="0.8">
			<linearGradient id="SVGID_2_" gradientUnits="userSpaceOnUse" x1="-0.9062" y1="11.2476" x2="15.6713" y2="-52.2843">
				<stop  offset="0" style="stop-color:#FFFFFF"/>
				<stop  offset="1" style="stop-color:#B7C6CE"/>
			</linearGradient>
			<path fill="url(#SVGID_2_)" d="M21.398,22.398c5.32-5.568,8.6-13.105,8.6-21.398c0-17.094-13.904-31-30.998-31
				c-8.293,0-15.83,3.279-21.398,8.602C-16.75-27.309-8.801-31,0-31c17.094,0,31,13.904,31,31C31,8.801,27.307,16.75,21.398,22.398z
				"/>
		</g>
		<g>
			<g>
				<linearGradient id="SVGID_3_" gradientUnits="userSpaceOnUse" x1="-8.4634" y1="30.79" x2="2.9751" y2="-10.8244">
					<stop  offset="0" style="stop-color:#FFFBD4"/>
					<stop  offset="1" style="stop-color:#000000"/>
				</linearGradient>
				<path fill="url(#SVGID_3_)" d="M-7.646-5.703C3.229,3.656,17.303,12.393,29.432,5.805C26.719,19.578,14.555,30.002,0,30.002
					c-16.543,0-30-13.461-30-30.004c0-4.008,0.795-7.832,2.229-11.33C-23.014-12.529-15.613-12.562-7.646-5.703z"/>
			</g>
		</g>
		<g>
			<linearGradient id="SVGID_4_" gradientUnits="userSpaceOnUse" x1="-13.8364" y1="36.3579" x2="7.4504" y2="-25.3726">
				<stop  offset="0" style="stop-color:#FFFFFF"/>
				<stop  offset="1" style="stop-color:#000000"/>
			</linearGradient>
			<path fill="url(#SVGID_4_)" d="M-27.998-2.004c0,16.543,13.457,30.004,30,30.004c7.762,0,14.846-2.965,20.178-7.82
				C16.688,26.211,8.777,30.002,0,30.002c-16.543,0-30-13.461-30-30.004c0-8.779,3.791-16.689,9.822-22.182
				C-25.033-16.85-27.998-9.768-27.998-2.004z"/>
		</g>
	</g>
	<g opacity="0.8">
		<linearGradient id="SVGID_5_" gradientUnits="userSpaceOnUse" x1="1" y1="-17.001" x2="1" y2="15.0976">
			<stop  offset="0" style="stop-color:#FFFFFF"/>
			<stop  offset="1" style="stop-color:#B7C6CE"/>
		</linearGradient>
		<polygon fill="url(#SVGID_5_)" points="-15,-1.001 1,14.999 1,6.999 17,6.999 17,-9.001 1,-9.001 1,-17.001 		"/>
	</g>
	<g>
		<polygon points="-16,0 0,16 0,8 16,8 16,-8 0,-8 0,-16 		"/>
	</g>
</symbol>
<symbol  id="Arrow_Right_-_Grey" viewBox="-32 -32 64 64">
	<g>
		<g>
			<radialGradient id="SVGID_6_" cx="-0.0645" cy="-22.5723" r="32.4843" gradientUnits="userSpaceOnUse">
				<stop  offset="0" style="stop-color:#E7ECEF"/>
				<stop  offset="1" style="stop-color:#BFC8CD"/>
			</radialGradient>
			<path fill="url(#SVGID_6_)" d="M0-31.5c-17.369,0-31.5,14.131-31.5,31.5S-17.369,31.5,0,31.5S31.5,17.369,31.5,0
				S17.369-31.5,0-31.5z"/>
			<g>
				<path fill="#8B98A0" d="M0,31c17.093,0,31-13.907,31-31S17.093-31,0-31S-31-17.093-31,0S-17.093,31,0,31 M0,32
					c-17.674,0-32-14.328-32-32c0-17.674,14.326-32,32-32c17.672,0,32,14.326,32,32C32,17.672,17.672,32,0,32L0,32z"/>
			</g>
		</g>
		<g opacity="0.8">
			<linearGradient id="SVGID_7_" gradientUnits="userSpaceOnUse" x1="-0.9058" y1="11.2476" x2="15.672" y2="-52.2849">
				<stop  offset="0" style="stop-color:#FFFFFF"/>
				<stop  offset="1" style="stop-color:#B7C6CE"/>
			</linearGradient>
			<path fill="url(#SVGID_7_)" d="M21.398,22.398C26.721,16.83,30,9.293,30,1c0-17.094-13.906-31-31-31
				c-8.293,0-15.83,3.279-21.398,8.602C-16.75-27.309-8.801-31,0.002-31C17.096-31,31-17.096,31,0
				C31,8.801,27.309,16.75,21.398,22.398z"/>
		</g>
		<g>
			<g>
				<linearGradient id="SVGID_8_" gradientUnits="userSpaceOnUse" x1="-8.4624" y1="30.79" x2="2.9762" y2="-10.8247">
					<stop  offset="0" style="stop-color:#FFFBD4"/>
					<stop  offset="1" style="stop-color:#000000"/>
				</linearGradient>
				<path fill="url(#SVGID_8_)" d="M-7.645-5.703C3.229,3.656,17.303,12.393,29.434,5.805C26.721,19.578,14.557,30.002,0,30.002
					c-16.543,0-30-13.461-30-30.004c0-4.008,0.797-7.832,2.229-11.33C-23.012-12.529-15.613-12.562-7.645-5.703z"/>
			</g>
		</g>
		<g>
			<linearGradient id="SVGID_9_" gradientUnits="userSpaceOnUse" x1="-13.8364" y1="36.3579" x2="7.4504" y2="-25.3726">
				<stop  offset="0" style="stop-color:#FFFFFF"/>
				<stop  offset="1" style="stop-color:#000000"/>
			</linearGradient>
			<path fill="url(#SVGID_9_)" d="M-27.998-2.004c0,16.543,13.457,30.004,30,30.004c7.762,0,14.846-2.965,20.178-7.82
				c-5.49,6.031-13.4,9.822-22.18,9.822c-16.543,0-30-13.461-30-30.004c0-8.779,3.791-16.689,9.822-22.182
				C-25.033-16.85-27.998-9.768-27.998-2.004z"/>
		</g>
	</g>
	<g opacity="0.8">
		<linearGradient id="SVGID_10_" gradientUnits="userSpaceOnUse" x1="2.002" y1="-17.001" x2="2.002" y2="15.0976">
			<stop  offset="0" style="stop-color:#FFFFFF"/>
			<stop  offset="1" style="stop-color:#B7C6CE"/>
		</linearGradient>
		<polygon fill="url(#SVGID_10_)" points="18.002,-1.001 2.002,14.999 2.002,6.999 -13.998,6.999 -13.998,-9.001 2.002,-9.001 
			2.002,-17.001 		"/>
	</g>
	<g>
		<polygon points="17.002,0 1.002,16 1.002,8 -14.998,8 -14.998,-8 1.002,-8 1.002,-16 		"/>
	</g>
</symbol>
<symbol  id="Badge_1_-_Red" viewBox="-25.999 -26 51.998 52">
	<g>
		<radialGradient id="SVGID_11_" cx="10.7725" cy="-15.1479" r="45.0658" gradientUnits="userSpaceOnUse">
			<stop  offset="0" style="stop-color:#FABD96"/>
			<stop  offset="1" style="stop-color:#EC1C24"/>
		</radialGradient>
		<path fill="url(#SVGID_11_)" d="M0.001-25.75c-1.042,0-2.006,1.196-2.938,2.353c-0.877,1.089-1.706,2.118-2.695,2.383
			c-0.197,0.052-0.414,0.079-0.645,0.079c-0.909,0-1.972-0.409-2.999-0.804c-0.973-0.374-1.979-0.761-2.774-0.761
			c-0.329,0-0.6,0.064-0.828,0.196c-0.873,0.505-1.106,2.002-1.333,3.45c-0.209,1.342-0.426,2.729-1.169,3.474
			c-0.745,0.745-2.134,0.961-3.477,1.171c-1.447,0.226-2.942,0.459-3.446,1.33c-0.493,0.852,0.044,2.25,0.564,3.602
			c0.493,1.281,1.002,2.606,0.725,3.644c-0.265,0.99-1.294,1.82-2.384,2.698C-24.554-2.004-25.749-1.041-25.749,0
			s1.195,2.004,2.352,2.935c1.09,0.878,2.12,1.708,2.384,2.698c0.278,1.038-0.232,2.363-0.725,3.644
			c-0.52,1.352-1.058,2.75-0.564,3.602c0.504,0.871,2,1.104,3.446,1.331c1.343,0.209,2.732,0.426,3.477,1.171
			s0.961,2.133,1.171,3.477c0.226,1.446,0.459,2.942,1.331,3.447c0.228,0.132,0.499,0.196,0.828,0.196
			c0.795,0,1.801-0.387,2.774-0.761c1.027-0.395,2.09-0.804,2.999-0.804c0.231,0,0.448,0.027,0.645,0.079
			c0.99,0.265,1.82,1.294,2.698,2.384c0.931,1.156,1.894,2.352,2.935,2.352s2.004-1.195,2.935-2.352
			c0.878-1.09,1.708-2.12,2.698-2.384c0.197-0.052,0.414-0.079,0.646-0.079c0.909,0,1.972,0.408,3,0.803
			c0.973,0.374,1.979,0.76,2.774,0.76c0.329,0,0.599-0.064,0.827-0.195c0.871-0.505,1.104-2,1.33-3.447
			c0.209-1.343,0.426-2.732,1.171-3.476c0.744-0.745,2.132-0.961,3.474-1.171c1.447-0.226,2.943-0.46,3.447-1.332
			c0.493-0.852-0.044-2.25-0.563-3.601c-0.492-1.281-1.001-2.605-0.724-3.643c0.265-0.99,1.294-1.82,2.383-2.698
			C24.554,2.004,25.749,1.041,25.749,0c0-1.042-1.195-2.004-2.352-2.936c-1.09-0.878-2.119-1.707-2.384-2.697
			c-0.276-1.038,0.232-2.362,0.725-3.643c0.52-1.353,1.058-2.751,0.564-3.603c-0.504-0.871-2-1.104-3.446-1.331
			c-1.343-0.209-2.732-0.426-3.477-1.171c-0.743-0.744-0.96-2.132-1.169-3.474c-0.226-1.448-0.459-2.944-1.333-3.45
			c-0.228-0.132-0.499-0.196-0.828-0.196c-0.795,0-1.801,0.387-2.774,0.761c-1.027,0.395-2.089,0.803-2.998,0.803
			c-0.231,0-0.448-0.027-0.645-0.08c-0.99-0.264-1.819-1.294-2.697-2.384C2.005-24.555,1.042-25.75,0.001-25.75z"/>
		<g>
			<path fill="#C3161C" d="M0.001,25.5c0.921,0,1.846-1.148,2.74-2.258c0.865-1.073,1.759-2.184,2.828-2.469
				c0.218-0.059,0.457-0.088,0.71-0.088c0.956,0,2.04,0.417,3.089,0.82c0.952,0.366,1.936,0.744,2.685,0.744
				c0.283,0,0.513-0.053,0.701-0.162c0.768-0.445,0.992-1.881,1.208-3.27c0.216-1.383,0.439-2.813,1.241-3.614
				c0.801-0.802,2.23-1.025,3.613-1.241c1.389-0.217,2.825-0.441,3.27-1.21c0.433-0.748-0.082-2.089-0.581-3.386
				c-0.506-1.318-1.03-2.681-0.731-3.797c0.285-1.069,1.395-1.963,2.468-2.828c1.11-0.894,2.257-1.819,2.257-2.74
				c0-0.922-1.148-1.847-2.258-2.741c-1.073-0.864-2.183-1.758-2.469-2.827c-0.298-1.116,0.226-2.479,0.732-3.797
				c0.499-1.298,1.015-2.64,0.582-3.388c-0.444-0.768-1.88-0.992-3.269-1.208c-1.383-0.216-2.813-0.439-3.616-1.241
				c-0.801-0.802-1.023-2.23-1.239-3.612c-0.217-1.39-0.441-2.827-1.21-3.272c-0.189-0.109-0.419-0.163-0.703-0.163
				c-0.749,0-1.733,0.378-2.685,0.744c-1.048,0.403-2.132,0.82-3.087,0.82h0c-0.253,0-0.491-0.029-0.708-0.088
				c-1.069-0.285-1.963-1.396-2.828-2.469c-0.894-1.11-1.819-2.258-2.74-2.258c-0.923,0-1.848,1.149-2.743,2.26
				c-0.864,1.072-1.757,2.182-2.825,2.467c-0.218,0.059-0.457,0.088-0.71,0.088c-0.956,0-2.04-0.417-3.089-0.82
				c-0.951-0.366-1.935-0.744-2.684-0.744c-0.284,0-0.514,0.053-0.703,0.163c-0.77,0.445-0.994,1.882-1.21,3.272
				c-0.215,1.381-0.438,2.81-1.239,3.612c-0.802,0.802-2.232,1.025-3.615,1.241c-1.389,0.217-2.824,0.441-3.269,1.208
				c-0.433,0.748,0.083,2.089,0.582,3.387c0.507,1.319,1.031,2.682,0.732,3.798c-0.285,1.069-1.396,1.963-2.469,2.828
				c-1.11,0.894-2.258,1.819-2.258,2.74s1.148,1.846,2.258,2.74c1.073,0.865,2.184,1.759,2.469,2.828
				c0.299,1.117-0.226,2.48-0.732,3.799c-0.499,1.297-1.015,2.639-0.582,3.387c0.444,0.768,1.88,0.992,3.269,1.208
				c1.383,0.216,2.813,0.439,3.615,1.241s1.025,2.232,1.241,3.615c0.217,1.388,0.441,2.824,1.208,3.269
				c0.189,0.109,0.419,0.163,0.703,0.163c0.749,0,1.732-0.378,2.684-0.744c1.049-0.403,2.133-0.82,3.089-0.82
				c0.253,0,0.492,0.029,0.709,0.088c1.069,0.285,1.963,1.396,2.828,2.469C-1.845,24.352-0.92,25.5,0.001,25.5 M0.001,26
				c-2.148,0-3.715-4.215-5.697-4.744c-0.183-0.049-0.377-0.071-0.581-0.071c-1.718,0-4.083,1.564-5.773,1.564
				c-0.351,0-0.672-0.067-0.953-0.23c-1.82-1.055-1.074-5.484-2.553-6.963s-5.91-0.732-6.963-2.553
				c-1.039-1.795,1.812-5.256,1.264-7.307C-21.784,3.715-25.999,2.148-25.999,0s4.215-3.715,4.744-5.697
				c0.549-2.051-2.303-5.512-1.264-7.307c1.053-1.82,5.484-1.074,6.963-2.553c1.477-1.479,0.73-5.908,2.553-6.963
				c0.281-0.163,0.603-0.23,0.953-0.23c1.69,0,4.055,1.564,5.773,1.564c0.203,0,0.397-0.022,0.581-0.071
				C-3.716-21.785-2.149-26,0.001-26c2.148,0,3.715,4.215,5.697,4.744c0.183,0.049,0.377,0.071,0.58,0.071
				c1.717,0,4.081-1.564,5.771-1.564c0.351,0,0.672,0.067,0.953,0.23c1.822,1.055,1.076,5.484,2.553,6.963
				c1.479,1.479,5.91,0.732,6.963,2.553c1.039,1.795-1.811,5.256-1.264,7.307C21.786-3.715,25.999-2.148,25.999,0
				s-4.213,3.715-4.742,5.697c-0.549,2.051,2.301,5.51,1.262,7.305c-1.053,1.822-5.484,1.076-6.961,2.555
				c-1.479,1.477-0.732,5.908-2.553,6.963c-0.281,0.162-0.602,0.229-0.952,0.229c-1.69,0-4.055-1.564-5.773-1.564
				c-0.204,0-0.398,0.022-0.581,0.071C3.716,21.785,2.149,26,0.001,26L0.001,26z"/>
		</g>
	</g>
	<g>
		<linearGradient id="SVGID_12_" gradientUnits="userSpaceOnUse" x1="-10.3818" y1="26.4561" x2="4.2843" y2="-8.5417">
			<stop  offset="0" style="stop-color:#FFFFFF"/>
			<stop  offset="1" style="stop-color:#000000"/>
		</linearGradient>
		<path fill="url(#SVGID_12_)" d="M-22.3-1.574c1.262-1.016,2.564-2.064,2.977-3.607c0.424-1.586-0.217-3.252-0.781-4.723
			c-0.016-0.041-0.035-0.094-0.053-0.137c5.822,4.676,15.426,9.266,26.758,12.34c4.432,1.203,8.752,2.07,12.814,2.619
			c-0.029,0.086-0.066,0.168-0.09,0.258c-0.426,1.59,0.213,3.258,0.781,4.729c0.24,0.625,0.625,1.631,0.645,2.084
			c-0.402,0.217-1.492,0.385-2.164,0.49c-1.621,0.254-3.297,0.514-4.443,1.662c-1.148,1.148-1.41,2.824-1.664,4.445
			c-0.107,0.701-0.287,1.854-0.449,2.162c-0.48-0.01-1.357-0.348-2.145-0.652c-1.172-0.447-2.383-0.91-3.611-0.91
			c-0.381,0-0.75,0.045-1.094,0.137c-1.543,0.412-2.592,1.717-3.609,2.977c-0.445,0.557-1.178,1.465-1.572,1.678
			c-0.391-0.213-1.123-1.117-1.57-1.674c-1.014-1.262-2.064-2.568-3.611-2.98c-0.342-0.092-0.709-0.137-1.092-0.137
			c-1.236,0-2.447,0.467-3.625,0.918c-0.734,0.283-1.559,0.6-2.094,0.639c-0.215-0.41-0.381-1.488-0.484-2.156
			c-0.256-1.619-0.516-3.295-1.664-4.441c-1.146-1.15-2.824-1.41-4.443-1.664c-0.707-0.111-1.863-0.291-2.168-0.455
			c0-0.434,0.402-1.48,0.648-2.123c0.564-1.469,1.205-3.135,0.781-4.721c-0.412-1.543-1.715-2.592-2.977-3.607
			c-0.557-0.449-1.465-1.18-1.674-1.574C-23.765-0.395-22.856-1.127-22.3-1.574z"/>
	</g>
</symbol>
<symbol  id="Bullet_7_-_Green" viewBox="-18.749 -20.939 37.498 41.878">
	<g>
		<radialGradient id="SVGID_13_" cx="-3.1309" cy="22.3301" r="35.5446" gradientUnits="userSpaceOnUse">
			<stop  offset="0" style="stop-color:#ECEB7B"/>
			<stop  offset="1" style="stop-color:#8BC53F"/>
		</radialGradient>
		<path fill="url(#SVGID_13_)" d="M-14.899-20.439c-2.066,0-3.35,1.701-3.35,4.44v32c0,2.738,1.284,4.438,3.35,4.438
			c0.862,0,1.84-0.302,2.828-0.872l27.713-16C17.323,2.596,18.25,1.329,18.249,0c0-1.329-0.926-2.595-2.607-3.565l-27.713-16
			C-13.06-20.137-14.038-20.439-14.899-20.439z"/>
		<g>
			<path fill="#608D2B" d="M-14.898,19.939L-14.898,19.939c0.774,0,1.666-0.278,2.577-0.805l27.713-16
				C16.912,2.256,17.75,1.143,17.749,0c0-1.143-0.837-2.255-2.357-3.133l-27.713-16c-0.912-0.527-1.803-0.806-2.578-0.806
				c-1.784,0-2.85,1.473-2.85,3.94v32C-17.749,18.467-16.684,19.939-14.898,19.939 M-14.899,20.939c-2.277,0-3.85-1.813-3.85-4.938
				v-32c0-3.125,1.572-4.94,3.85-4.94c0.928,0,1.975,0.302,3.078,0.94l27.713,16c3.81,2.199,3.81,5.799,0,8l-27.713,16
				C-12.925,20.638-13.971,20.939-14.899,20.939L-14.899,20.939z"/>
		</g>
	</g>
	<g>
		<linearGradient id="SVGID_14_" gradientUnits="userSpaceOnUse" x1="32.1924" y1="-0.1221" x2="-36.353" y2="-16.9679">
			<stop  offset="0" style="stop-color:#FFFFFF"/>
			<stop  offset="1" style="stop-color:#000000"/>
		</linearGradient>
		<path fill="url(#SVGID_14_)" d="M14.89,2.269l-0.831,0.478c0.596-0.523,0.928-1.082,0.928-1.608c0-0.768-0.682-1.6-1.875-2.286
			l-27.908-16.112c-0.57-0.33-1.115-0.544-1.607-0.632c0.262-0.58,0.711-1.047,1.504-1.047c0.601,0,1.318,0.233,2.078,0.672
			L14.89-2.269C16.073-1.587,16.75-0.759,16.75,0S16.073,1.587,14.89,2.269z"/>
	</g>
	<g>
		<linearGradient id="SVGID_15_" gradientUnits="userSpaceOnUse" x1="-18.4038" y1="18.2129" x2="1.5948" y2="-6.7853">
			<stop  offset="0" style="stop-color:#FFFFFF"/>
			<stop  offset="1" style="stop-color:#000000"/>
		</linearGradient>
		<path fill="url(#SVGID_15_)" d="M0.642,4.51c2.514,0.768,5.004,1.327,7.424,1.698l-20.886,12.061
			c-0.76,0.438-1.477,0.671-2.078,0.671c-1.67,0-1.85-2.054-1.85-2.938V-4.938C-12.524-1.069-6.472,2.343,0.642,4.51z"/>
	</g>
</symbol>
<symbol  id="Orb_-_Blue" viewBox="-33.086 -36 66.173 72">
	
		<radialGradient id="SVGID_16_" cx="994.8589" cy="22950.3672" r="28.9487" gradientTransform="matrix(1.1428 0 0 0.2501 -1136.9238 -5768.6475)" gradientUnits="userSpaceOnUse">
		<stop  offset="0.0982" style="stop-color:#DADADA;stop-opacity:0.95"/>
		<stop  offset="1" style="stop-color:#FFFFFF;stop-opacity:0"/>
	</radialGradient>
	<path fill="url(#SVGID_16_)" d="M33.087-28.762C33.087-32.76,18.272-36,0-36s-33.086,3.24-33.086,7.238s14.813,7.24,33.086,7.24
		S33.087-24.764,33.087-28.762z"/>
	<g>
		<g>
			<radialGradient id="SVGID_17_" cx="-0.0942" cy="-21.4604" r="34.1111" gradientUnits="userSpaceOnUse">
				<stop  offset="0" style="stop-color:#D1EDFB"/>
				<stop  offset="1" style="stop-color:#1FA0DA"/>
			</radialGradient>
			<path fill="url(#SVGID_17_)" d="M0-29.924c-18.106,0-32.836,14.73-32.836,32.836c0,18.107,14.73,32.838,32.836,32.838
				c18.106,0,32.837-14.731,32.837-32.838C32.837-15.194,18.106-29.924,0-29.924z"/>
			<g>
				<path fill="#0080B8" d="M0,35.5c17.968,0,32.587-14.619,32.587-32.588c0-17.968-14.619-32.586-32.587-32.586
					c-17.968,0-32.586,14.618-32.586,32.586C-32.586,20.881-17.968,35.5,0,35.5 M0,36c-18.274,0-33.086-14.814-33.086-33.088
					c0-18.271,14.812-33.086,33.086-33.086c18.275,0,33.087,14.814,33.087,33.086C33.087,21.186,18.275,36,0,36L0,36z"/>
			</g>
		</g>
		
			<radialGradient id="SVGID_18_" cx="-11.8989" cy="-3.8936" r="11.71" gradientTransform="matrix(1 0 0 1 -0.0337 0)" gradientUnits="userSpaceOnUse">
			<stop  offset="0.1099" style="stop-color:#FFFFFF"/>
			<stop  offset="0.9505" style="stop-color:#000000"/>
		</radialGradient>
		<path opacity="0.6" fill="url(#SVGID_18_)" d="M-0.223-3.895c0-6.467-5.242-11.709-11.711-11.709
			c-6.467,0-11.709,5.242-11.709,11.709c0,6.469,5.242,11.711,11.709,11.711C-5.465,7.816-0.223,2.574-0.223-3.895z"/>
		
			<radialGradient id="SVGID_19_" cx="-14.6313" cy="16.3057" r="2.8134" gradientTransform="matrix(1 0 0 1 -0.0337 0)" gradientUnits="userSpaceOnUse">
			<stop  offset="0.1099" style="stop-color:#FFFFFF"/>
			<stop  offset="0.9505" style="stop-color:#000000"/>
		</radialGradient>
		<path opacity="0.8" fill="url(#SVGID_19_)" d="M-11.852,16.305c0-1.553-1.261-2.812-2.814-2.812s-2.812,1.26-2.812,2.812
			c0,1.555,1.259,2.814,2.812,2.814S-11.852,17.859-11.852,16.305z"/>
		
			<radialGradient id="SVGID_20_" cx="-15.4043" cy="-6.7646" r="4.364" gradientTransform="matrix(1 0 0 1 -0.0337 0)" gradientUnits="userSpaceOnUse">
			<stop  offset="0.1099" style="stop-color:#FFFFFF"/>
			<stop  offset="0.9505" style="stop-color:#000000"/>
		</radialGradient>
		<path opacity="0.8" fill="url(#SVGID_20_)" d="M-11.074-6.766c0-2.41-1.955-4.363-4.364-4.363c-2.412,0-4.363,1.953-4.363,4.363
			S-17.85-2.4-15.438-2.4C-13.029-2.4-11.074-4.355-11.074-6.766z"/>
		
			<radialGradient id="SVGID_21_" cx="4.3135" cy="21.332" r="5.2615" gradientTransform="matrix(1 0 0 1 -0.0337 0)" gradientUnits="userSpaceOnUse">
			<stop  offset="0.1099" style="stop-color:#FFFFFF"/>
			<stop  offset="0.9505" style="stop-color:#000000"/>
		</radialGradient>
		<path opacity="0.8" fill="url(#SVGID_21_)" d="M9.541,21.332c0-2.906-2.355-5.262-5.261-5.262c-2.907,0-5.262,2.355-5.262,5.262
			c0,2.904,2.354,5.262,5.262,5.262C7.186,26.594,9.541,24.236,9.541,21.332z"/>
		
			<radialGradient id="SVGID_22_" cx="2.4316" cy="10.333" r="1.0774" gradientTransform="matrix(1 0 0 1 -0.0337 0)" gradientUnits="userSpaceOnUse">
			<stop  offset="0.1099" style="stop-color:#FFFFFF"/>
			<stop  offset="0.9505" style="stop-color:#000000"/>
		</radialGradient>
		<path fill="url(#SVGID_22_)" d="M3.476,10.334c0-0.596-0.482-1.078-1.077-1.078c-0.596,0-1.078,0.482-1.078,1.078
			c0,0.594,0.482,1.076,1.078,1.076C2.993,11.41,3.476,10.928,3.476,10.334z"/>
		
			<radialGradient id="SVGID_23_" cx="-8.2319" cy="8.4062" r="2.2227" gradientTransform="matrix(1 0 0 1 -0.0337 0)" gradientUnits="userSpaceOnUse">
			<stop  offset="0.1099" style="stop-color:#FFFFFF"/>
			<stop  offset="0.9505" style="stop-color:#000000"/>
		</radialGradient>
		<path fill="url(#SVGID_23_)" d="M-6.043,8.406c0-1.227-0.996-2.223-2.223-2.223c-1.229,0-2.223,0.996-2.223,2.223
			s0.994,2.223,2.223,2.223C-7.039,10.629-6.043,9.633-6.043,8.406z"/>
		
			<radialGradient id="SVGID_24_" cx="16.1802" cy="5.1104" r="15.415" gradientTransform="matrix(1 0 0 1 -0.0337 0)" gradientUnits="userSpaceOnUse">
			<stop  offset="0.1099" style="stop-color:#FFFFFF"/>
			<stop  offset="0.9505" style="stop-color:#000000"/>
		</radialGradient>
		<path opacity="0.8" fill="url(#SVGID_24_)" d="M31.562,5.109c0-8.512-6.902-15.414-15.415-15.414
			c-8.516,0-15.415,6.902-15.415,15.414c0,8.514,6.899,15.416,15.415,15.416C24.659,20.525,31.562,13.623,31.562,5.109z"/>
		
			<linearGradient id="SVGID_25_" gradientUnits="userSpaceOnUse" x1="-593.7344" y1="619.2539" x2="-630.7866" y2="582.2017" gradientTransform="matrix(0.9633 0.036 0.036 0.9647 573.9209 -562.4717)">
			<stop  offset="0" style="stop-color:#000000"/>
			<stop  offset="0.6044" style="stop-color:#FFFFFF"/>
			<stop  offset="0.9011" style="stop-color:#000000"/>
		</linearGradient>
		<path fill="url(#SVGID_25_)" d="M3.211-1.521c9.679,9.875,20.568,15.025,24.875,11.902c-0.117,0.156-0.242,0.305-0.383,0.443
			C23.752,14.697,12.412,9.537,2.375-0.703S-12.592-22.385-8.639-26.258c0.141-0.137,0.292-0.26,0.451-0.375
			C-11.397-22.391-6.471-11.398,3.211-1.521z"/>
		
			<linearGradient id="SVGID_26_" gradientUnits="userSpaceOnUse" x1="18926.6621" y1="-12499.2344" x2="18889.6113" y2="-12536.2852" gradientTransform="matrix(-0.3696 0.9966 0.8496 0.6373 17625.4961 -10865.0098)">
			<stop  offset="0" style="stop-color:#000000"/>
			<stop  offset="0.6044" style="stop-color:#FFFFFF"/>
			<stop  offset="0.9011" style="stop-color:#000000"/>
		</linearGradient>
		<path opacity="0.4" fill="url(#SVGID_26_)" d="M6.135,0.859c4.813,15.938,4.887,30.158,0.289,32.568
			c0.188-0.021,0.377-0.055,0.557-0.113c5.123-1.582,5.227-16.264,0.236-32.791C2.226-16.004-5.972-28.117-11.092-26.533
			c-0.184,0.057-0.356,0.135-0.525,0.223C-6.474-26.914,1.32-15.084,6.135,0.859z"/>
		
			<linearGradient id="SVGID_27_" gradientUnits="userSpaceOnUse" x1="18590.3008" y1="-5079.2417" x2="18553.25" y2="-5116.292" gradientTransform="matrix(-0.5506 0.8376 -0.9113 -0.4243 5580.4185 -17727.0625)">
			<stop  offset="0" style="stop-color:#000000"/>
			<stop  offset="0.6044" style="stop-color:#FFFFFF"/>
			<stop  offset="0.9011" style="stop-color:#000000"/>
		</linearGradient>
		<path opacity="0.7" fill="url(#SVGID_27_)" d="M-1.447-12.26C-15.776-8.344-26.385-1.117-25.811,4.18
			c-0.082-0.178-0.153-0.359-0.203-0.551c-1.459-5.336,9.4-12.957,24.258-17.018c14.858-4.061,28.084-3.023,29.543,2.314
			c0.052,0.191,0.084,0.383,0.104,0.578C25.693-15.35,12.883-16.176-1.447-12.26z"/>
		
			<linearGradient id="SVGID_28_" gradientUnits="userSpaceOnUse" x1="-2880.0898" y1="-5719.3638" x2="-2917.1416" y2="-5756.4155" gradientTransform="matrix(0.8336 -0.5524 0.5524 0.8336 5584.3374 3197.1885)">
			<stop  offset="0" style="stop-color:#000000"/>
			<stop  offset="0.6044" style="stop-color:#FFFFFF"/>
			<stop  offset="0.9011" style="stop-color:#000000"/>
		</linearGradient>
		<path fill="url(#SVGID_28_)" d="M-1.834,19.896c13.523,2.887,25.513,0.846,27.464-4.535c-0.015,0.209-0.04,0.418-0.085,0.627
			c-1.246,5.83-13.621,8.133-27.642,5.143c-14.022-2.992-24.382-10.146-23.136-15.979c0.044-0.207,0.105-0.408,0.177-0.605
			C-25.471,10.256-15.359,17.012-1.834,19.896z"/>
		
			<linearGradient id="SVGID_29_" gradientUnits="userSpaceOnUse" x1="2544.7241" y1="-14879.207" x2="2507.6709" y2="-14916.2607" gradientTransform="matrix(-0.4266 -1.395 1.45 0.0123 22685.1465 3715.6348)">
			<stop  offset="0" style="stop-color:#000000"/>
			<stop  offset="0.6044" style="stop-color:#FFFFFF"/>
			<stop  offset="0.9011" style="stop-color:#000000"/>
		</linearGradient>
		<path fill="url(#SVGID_29_)" d="M12.309,12.27C22.5-1.111,24.893-16.562,17.988-23.021c0.295,0.18,0.587,0.373,0.865,0.586
			c7.867,5.992,5.684,22.1-4.883,35.973C3.405,27.414-11.541,33.801-19.411,27.809c-0.279-0.213-0.541-0.441-0.795-0.678
			C-12.145,32.068,2.118,25.654,12.309,12.27z"/>
		
			<linearGradient id="SVGID_30_" gradientUnits="userSpaceOnUse" x1="8088.1289" y1="1974.3438" x2="8051.0757" y2="1937.2905" gradientTransform="matrix(0.8051 0.8335 -0.8394 0.7986 -4864.959 -8286.5674)">
			<stop  offset="0" style="stop-color:#000000"/>
			<stop  offset="0.6044" style="stop-color:#FFFFFF"/>
			<stop  offset="0.9011" style="stop-color:#000000"/>
		</linearGradient>
		<path fill="url(#SVGID_30_)" d="M-15.181,1.998c-0.497,15.957,4.324,29.154,10.888,30.266c-0.242,0.027-0.487,0.041-0.733,0.033
			c-6.933-0.217-12.136-13.803-11.619-30.344c0.516-16.543,6.556-29.777,13.489-29.562c0.246,0.01,0.488,0.037,0.729,0.08
			C-9.047-26.83-14.684-13.957-15.181,1.998z"/>
		
			<linearGradient id="SVGID_31_" gradientUnits="userSpaceOnUse" x1="17667.6504" y1="-10124.4043" x2="17630.5996" y2="-10161.4551" gradientTransform="matrix(-0.9505 0.5407 -0.4071 -1.0118 12654.3232 -19821.0176)">
			<stop  offset="0" style="stop-color:#000000"/>
			<stop  offset="0.6044" style="stop-color:#FFFFFF"/>
			<stop  offset="0.9011" style="stop-color:#000000"/>
		</linearGradient>
		<path opacity="0.7" fill="url(#SVGID_31_)" d="M9.152-20.764c-13.221-4.76-25.793-3.725-28.777,2.211
			c0.053-0.238,0.117-0.475,0.203-0.707c2.347-6.525,15.364-7.816,29.072-2.885C23.358-17.209,32.564-7.918,30.215-1.391
			c-0.084,0.23-0.182,0.453-0.292,0.67C31.406-7.195,22.373-16.006,9.152-20.764z"/>
		<g>
			
				<linearGradient id="SVGID_32_" gradientUnits="userSpaceOnUse" x1="-3673.8672" y1="15508.9375" x2="-3673.8672" y2="15428.3779" gradientTransform="matrix(0.6881 0 0 0.3317 2527.9883 -5112.4512)">
				<stop  offset="0" style="stop-color:#FFFFFF"/>
				<stop  offset="1" style="stop-color:#000000"/>
			</linearGradient>
			<path fill="url(#SVGID_32_)" d="M19.766,21.805c0-5.555-8.848-10.059-19.766-10.059c-10.916,0-19.765,4.504-19.765,10.059
				S-10.916,31.863,0,31.863C10.918,31.863,19.766,27.359,19.766,21.805z"/>
		</g>
	</g>
</symbol>
<symbol  id="Star_-_Orange" viewBox="-24 -22.826 48 45.652">
	<g>
		<radialGradient id="SVGID_33_" cx="4.2085" cy="-13.9414" r="20.4942" gradientUnits="userSpaceOnUse">
			<stop  offset="0" style="stop-color:#FFF588"/>
			<stop  offset="0.3132" style="stop-color:#FFF350"/>
			<stop  offset="1" style="stop-color:#FAA919"/>
		</radialGradient>
		<polygon fill="url(#SVGID_33_)" points="0,-14.462 -14.169,-21.912 -11.463,-6.134 -22.926,5.04 -7.085,7.342 0,21.696 
			7.085,7.342 22.926,5.04 11.463,-6.134 14.169,-21.912 		"/>
		<path fill="#D88119" d="M0,20.567l6.521-13.21l0.232-0.472l0.52-0.076L21.851,4.69L11.302-5.592l-0.376-0.367l0.089-0.518
			l2.491-14.521l-13.04,6.856L0-13.897l-0.465-0.245l-13.04-6.856l2.491,14.521l0.089,0.518l-0.376,0.367L-21.851,4.69l14.578,2.119
			l0.52,0.076l0.232,0.472L0,20.567 M0,22.826L-7.417,7.799L-24,5.389l12-11.697l-2.833-16.518L0-15.027l14.833-7.799L12-6.309
			L24,5.389L7.417,7.799L0,22.826L0,22.826z"/>
	</g>
	<g>
		<linearGradient id="SVGID_34_" gradientUnits="userSpaceOnUse" x1="-5.1191" y1="25.3193" x2="4.5485" y2="-14.9636">
			<stop  offset="0" style="stop-color:#FFFFFF"/>
			<stop  offset="1" style="stop-color:#000000"/>
		</linearGradient>
		<path fill="url(#SVGID_34_)" d="M-9.851-5.609l-0.178-1.039l-0.438-2.555C-4.661-3.445,5.022,0.34,16.008,0.391l3.693,3.6
			L7.127,5.818l-1.04,0.152L5.621,6.914l-5.622,11.391L-5.622,6.914l-0.465-0.943l-1.041-0.152L-19.702,3.99l9.1-8.867L-9.851-5.609
			z"/>
	</g>
</symbol>
<g id="Back" display="none">
	<g id="_x38_yeIhA.tif" display="inline">
		
			<image overflow="visible" width="1238" height="932" id="Layer_0_1_" xlink:href="50DE905B85CC225B.png"  transform="matrix(1 0 0 1 -188.5 -336.1953)">
		</image>
	</g>
</g>
<g id="App">
	<rect x="0.5" y="1" fill="#333333" stroke="#4D4D4D" stroke-width="2" stroke-miterlimit="1" width="849" height="500"/>
	<g>
		<line fill="none" stroke="#1A1A1A" stroke-width="2" stroke-miterlimit="1" x1="12.5" y1="42" x2="842.5" y2="42"/>
		<line fill="none" stroke="#4D4D4D" stroke-width="2" stroke-miterlimit="1" x1="11.5" y1="491" x2="841.5" y2="491"/>
		<line fill="none" stroke="#1A1A1A" stroke-width="2" stroke-miterlimit="1" x1="11.5" y1="41" x2="11.5" y2="492"/>
		<line fill="none" stroke="#4D4D4D" stroke-width="2" stroke-miterlimit="1" x1="841.5" y1="41" x2="841.5" y2="492"/>
	</g>
	<g>
		
			<text transform="matrix(1 0 0 1 14.5 27)" fill="#99CDF0" stroke="#739AB4" stroke-miterlimit="1" font-family="'Copperplate'" font-size="24">Shape Viewer</text>
	</g>
	<g>
		<line fill="none" stroke="#4D4D4D" stroke-width="2" stroke-miterlimit="1" x1="168.5" y1="41" x2="168.5" y2="490"/>
		<line fill="none" stroke="#1A1A1A" stroke-width="2" stroke-miterlimit="1" x1="176.5" y1="41" x2="176.5" y2="492"/>
		<line fill="none" stroke="#333333" stroke-width="2" stroke-miterlimit="1" x1="169.5" y1="42" x2="175.5" y2="42"/>
		<line fill="none" stroke="#333333" stroke-width="2" stroke-miterlimit="1" x1="169.5" y1="491" x2="175.5" y2="491"/>
	</g>
</g>
<g id="Shape_List" display="none">
	<rect x="13.5" y="43" display="inline" fill="#5D5D5D" width="154" height="115"/>
	<g display="inline">
		
			<image overflow="visible" opacity="0.75" width="113" height="113" xlink:href="50DE905B85CC2259.png"  transform="matrix(1 0 0 1 41.5 50)">
		</image>
		<g>
			
				<use xlink:href="#Star_-_Orange"  width="48" height="45.652" x="-24" y="-22.826" transform="matrix(1.7083 0 0 -1.7962 91.0938 99.5)" overflow="visible"/>
		</g>
	</g>
	<g display="inline">
		
			<image overflow="visible" opacity="0.75" width="112" height="118" xlink:href="50DE905B85CC225F.png"  transform="matrix(1 0 0 1 41.5 164)">
		</image>
		<g>
			
				<use xlink:href="#Orb_-_Blue"  width="66.173" height="72" x="-33.086" y="-36" transform="matrix(1.2208 0 0 -1.2208 90.2378 216.0088)" overflow="visible"/>
		</g>
	</g>
	<g display="inline">
		
			<image overflow="visible" opacity="0.75" width="112" height="112" xlink:href="50DE905B85CC2258.png"  transform="matrix(1 0 0 1 40.5 275)">
		</image>
		<g>
			
				<use xlink:href="#Badge_1_-_Red"  width="51.998" height="52" x="-25.999" y="-26" transform="matrix(1.5528 0 0 -1.5528 89.7949 324.2876)" overflow="visible"/>
		</g>
	</g>
	<g display="inline">
		
			<image overflow="visible" opacity="0.75" width="105" height="114" xlink:href="50DE905B85CC2256.png"  transform="matrix(1 0 0 1 46.5 387)">
		</image>
		<g>
			
				<use xlink:href="#Bullet_7_-_Green"  width="37.498" height="41.878" x="-18.749" y="-20.939" transform="matrix(1.9671 0 0 -1.9671 91.8496 436.9155)" overflow="visible"/>
		</g>
	</g>
</g>
<g id="Shape_Viewer" display="none">
	<g display="inline">
		<rect x="176.5" y="44" fill="#6595B6" width="663" height="30"/>
		<rect x="176.5" y="74" fill="#B3B3B3" width="663" height="4"/>
	</g>
	<g display="inline">
		
			<image overflow="visible" opacity="0.75" width="353" height="354" xlink:href="50DE905B85CC2257.png"  transform="matrix(1 0 0 1 339.5 114)">
		</image>
		<g>
			
				<use xlink:href="#Star_-_Orange"  width="48" height="45.652" x="-24" y="-22.826" transform="matrix(6.7292 0 0 -7.0752 509 283.9146)" overflow="visible"/>
		</g>
	</g>
	<text transform="matrix(1 0 0 1 773.5 63.6909)" display="inline" fill="#FFFFFF" font-family="'Copperplate'" font-size="24">Star</text>
	
		<use xlink:href="#Arrow_Left_-_Grey"  width="64" height="64" x="-32" y="-32" transform="matrix(0.3466 0 0 -0.3437 197.5 58.8467)" display="inline" overflow="visible"/>
	
		<use xlink:href="#Arrow_Right_-_Grey"  width="64" height="64" x="-32" y="-32" transform="matrix(0.3438 0 0 -0.3438 223.6558 58.8467)" display="inline" overflow="visible"/>
	<g id="Reload" display="inline">
	</g>
</g>
</svg>
